<svg width="26" height="26" viewBox="0 0 26 26" fill="none" xmlns="http://www.w3.org/2000/svg">
<path d="M0 12.9149C0.00150291 19.2691 4.6221 24.6794 10.8978 25.6753V16.6478H7.62083V12.9149H10.9017V10.0732C10.755 8.72671 11.2149 7.38474 12.1567 6.41126C13.0985 5.43778 14.4245 4.9337 15.7751 5.03573C16.7446 5.05138 17.7116 5.13772 18.6685 5.29406V8.47027H17.0358C16.4737 8.39665 15.9086 8.58228 15.4997 8.97488C15.0908 9.36747 14.8823 9.92454 14.933 10.4891V12.9149H18.5122L17.94 16.6491H14.933V25.6753C21.72 24.6027 26.4793 18.4042 25.763 11.5704C25.0466 4.73654 19.1054 -0.340283 12.2435 0.0178312C5.38155 0.375945 0.00109078 6.04362 0 12.9149Z" fill="#0047B3"/>
</svg>
