<svg width="190" height="180" viewBox="0 0 190 180" fill="none" xmlns="http://www.w3.org/2000/svg">
<path d="M174.046 9.6158C151.656 -3.73902 122.682 -2.99758 100.693 10.6849C88.338 18.3722 78.7879 29.4594 67.958 39.004C58.4682 47.3673 47.4328 53.333 37.6319 61.2242C2.0883 89.8425 5.47971 167.031 55.5291 177.284C77.2244 181.728 106.876 183.154 119.627 161.941C131.785 141.715 135.863 121.025 159.619 110.282C167.898 106.537 181.735 106.726 187.343 98.5218C194.42 88.1683 185.639 77.4129 180.954 68.3904C174.918 56.7628 173.651 45.2991 177.899 32.8263C181.516 22.2053 184.062 17.4342 174.046 9.6158Z" fill="url(#paint0_linear_73_1518)"/>
<path opacity="0.1" d="M143.856 108.027C129.334 108.027 116.922 117.067 111.926 129.831C111.891 129.819 111.86 129.8 111.824 129.79L92.6343 124.167C93.7841 120.736 94.4081 117.064 94.4081 113.245C94.4081 104.381 91.0508 96.3017 85.54 90.2123L106.48 75.9567C106.505 75.9395 106.524 75.9177 106.548 75.8994C112.829 83.7896 122.509 88.8475 133.371 88.8475C152.304 88.8475 167.652 73.4828 167.652 54.5293C167.652 35.5759 152.304 20.2112 133.371 20.2112C114.438 20.2112 99.0894 35.5759 99.0894 54.5293C99.0894 61.3507 101.078 67.707 104.505 73.0497H104.505L83.3236 87.4697C83.2165 87.5425 83.1217 87.6265 83.0363 87.7172C76.9647 82.2529 68.9341 78.9264 60.1267 78.9264C41.1935 78.9264 25.8452 94.2911 25.8452 113.245C25.8452 132.198 41.1935 147.563 60.1267 147.563C74.0052 147.563 85.9572 139.306 91.3496 127.433C91.4125 127.459 91.4726 127.49 91.5393 127.51L110.818 133.158C110.009 136.083 109.574 139.163 109.574 142.346C109.574 161.299 124.922 176.664 143.856 176.664C162.789 176.664 178.137 161.299 178.137 142.346C178.137 123.392 162.789 108.027 143.856 108.027Z" fill="#3A85F4"/>
<path d="M133.372 80.41C152.305 80.41 167.654 65.0452 167.654 46.0918C167.654 27.1384 152.305 11.7737 133.372 11.7737C114.439 11.7737 99.0908 27.1384 99.0908 46.0918C99.0908 65.0452 114.439 80.41 133.372 80.41Z" fill="#D4EBFF"/>
<path d="M60.1267 139.125C79.0598 139.125 94.4081 123.76 94.4081 104.807C94.4081 85.8535 79.0598 70.4888 60.1267 70.4888C41.1935 70.4888 25.8452 85.8535 25.8452 104.807C25.8452 123.76 41.1935 139.125 60.1267 139.125Z" fill="#D4EBFF"/>
<path d="M143.857 168.226C162.79 168.226 178.139 152.861 178.139 133.908C178.139 114.955 162.79 99.5898 143.857 99.5898C124.924 99.5898 109.576 114.955 109.576 133.908C109.576 152.861 124.924 168.226 143.857 168.226Z" fill="#D4EBFF"/>
<path d="M66.552 49.7825C65.582 49.7825 64.796 48.9953 64.796 48.0247C64.796 46.8613 63.8506 45.9153 62.6886 45.9153C61.7186 45.9153 60.9326 45.1281 60.9326 44.1575C60.9326 43.1868 61.7186 42.3997 62.6886 42.3997C63.8506 42.3997 64.796 41.4536 64.796 40.2903C64.796 39.3196 65.582 38.5325 66.552 38.5325C67.5219 38.5325 68.3079 39.3196 68.3079 40.2903C68.3079 41.4536 69.2529 42.3997 70.4147 42.3997C71.3846 42.3997 72.1706 43.1868 72.1706 44.1575C72.1706 45.1281 71.3846 45.9153 70.4147 45.9153C69.2529 45.9153 68.3079 46.8613 68.3079 48.0247C68.3079 48.9953 67.5219 49.7825 66.552 49.7825Z" fill="#81C2FF"/>
<path d="M171.441 86.1109C170.471 86.1109 169.685 85.3237 169.685 84.353C169.685 83.1897 168.74 82.2437 167.578 82.2437C166.608 82.2437 165.822 81.4565 165.822 80.4858C165.822 79.5152 166.608 78.728 167.578 78.728C168.74 78.728 169.685 77.782 169.685 76.6187C169.685 75.648 170.471 74.8608 171.441 74.8608C172.411 74.8608 173.197 75.648 173.197 76.6187C173.197 77.782 174.142 78.728 175.304 78.728C176.274 78.728 177.06 79.5152 177.06 80.4858C177.06 81.4565 176.274 82.2437 175.304 82.2437C174.142 82.2437 173.197 83.1897 173.197 84.353C173.197 85.3237 172.411 86.1109 171.441 86.1109Z" fill="#D4EBFF"/>
<path d="M78.1136 158.431C77.1436 158.431 76.3577 157.644 76.3577 156.673C76.3577 155.51 75.4126 154.563 74.2506 154.563C73.2806 154.563 72.4946 153.776 72.4946 152.806C72.4946 151.835 73.2806 151.048 74.2506 151.048C75.4126 151.048 76.3577 150.102 76.3577 148.938C76.3577 147.968 77.1436 147.181 78.1136 147.181C79.0836 147.181 79.8696 147.968 79.8696 148.938C79.8696 150.102 80.8146 151.048 81.9767 151.048C82.9467 151.048 83.7326 151.835 83.7326 152.806C83.7326 153.776 82.9467 154.563 81.9767 154.563C80.8146 154.563 79.8696 155.51 79.8696 156.673C79.8696 157.644 79.0836 158.431 78.1136 158.431Z" fill="#81C2FF"/>
<path d="M79.5418 59.9777C79.0926 59.9777 78.6427 59.8061 78.3003 59.463L74.4373 55.5958C73.7514 54.9092 73.7514 53.7962 74.4373 53.1099L78.3003 49.2427C78.9855 48.5565 80.098 48.5565 80.7832 49.2427L84.6463 53.1099C85.3321 53.7965 85.3321 54.9096 84.6463 55.5958L80.7832 59.463C80.4408 59.8058 79.9913 59.9777 79.5418 59.9777ZM78.1619 54.3527L79.5418 55.734L80.9216 54.3527L79.5418 52.9714L78.1619 54.3527Z" fill="#D4EBFF"/>
<path d="M98.2698 163.097C97.8206 163.097 97.3707 162.925 97.0283 162.582L93.1653 158.715C92.4794 158.028 92.4794 156.915 93.1653 156.229L97.0283 152.362C97.7135 151.676 98.8261 151.676 99.5112 152.362L103.374 156.229C104.06 156.916 104.06 158.029 103.374 158.715L99.5112 162.582C99.1688 162.925 98.7193 163.097 98.2698 163.097ZM96.8903 157.472L98.2701 158.853L99.6499 157.472L98.2701 156.091L96.8903 157.472Z" fill="#9ED0FF"/>
<path d="M5.6189 127.25C5.16973 127.25 4.71986 127.078 4.37746 126.735L0.514401 122.868C-0.171467 122.181 -0.171467 121.068 0.514401 120.382L4.37746 116.515C5.06262 115.828 6.17518 115.828 6.86035 116.515L10.7234 120.382C11.4093 121.068 11.4093 122.182 10.7234 122.868L6.86035 126.735C6.51794 127.078 6.06842 127.25 5.6189 127.25ZM4.23944 121.625L5.61926 123.006L6.99907 121.625L5.61926 120.243L4.23944 121.625Z" fill="#81C2FF"/>
<path d="M84.5 80L105 66" stroke="#5A5A5A" stroke-width="3"/>
<path fill-rule="evenodd" clip-rule="evenodd" d="M60.1271 140.884C74.7702 140.884 87.4006 132.095 93.0333 119.51C93.2789 119.009 93.879 117.651 94.3151 116.223C95.5141 112.633 96.1652 108.795 96.1652 104.808C96.1652 95.5907 92.693 87.1715 86.9911 80.7878C86.7063 80.4641 85.2006 78.9565 84.4833 78.2432C78.0647 72.3405 69.5094 68.7313 60.1267 68.7313C40.2555 68.7313 24.0894 84.9148 24.0894 104.807C24.0897 124.7 40.2559 140.884 60.1271 140.884ZM103.065 65.5929C103.656 66.4314 104.891 68.177 105.111 68.4518C111.717 76.8015 121.93 82.1677 133.372 82.1677C141.949 82.1677 150.259 79.0996 156.771 73.5284C163.209 68.0198 167.521 60.4046 168.911 52.0859C169.071 51.1282 168.425 50.2222 167.469 50.0619C166.515 49.9034 165.607 50.5481 165.447 51.5058C164.193 59.0113 160.301 65.883 154.489 70.8562C148.613 75.8835 141.113 78.6524 133.372 78.6524C115.437 78.6524 100.846 64.0461 100.846 46.0921C100.846 28.1381 115.437 13.5317 133.372 13.5317C149.127 13.5317 162.588 24.7786 165.379 40.2741C165.551 41.2296 166.463 41.8635 167.419 41.6919C168.373 41.5197 169.008 40.6056 168.836 39.65C165.742 22.479 150.828 10.0161 133.371 10.0161C113.5 10.0161 97.3336 26.1996 97.3336 46.0921C97.3336 53.271 99.44 59.9665 103.065 65.5929ZM107.819 133.908C107.819 130.6 108.265 127.351 109.132 124.227C109.239 123.608 109.917 121.744 110.242 120.889C111.28 118.207 112.639 115.642 114.315 113.246C114.871 112.45 115.966 112.257 116.761 112.813C117.555 113.37 117.748 114.466 117.192 115.261C113.358 120.745 111.331 127.193 111.331 133.908C111.331 151.862 125.922 166.469 143.857 166.469C161.791 166.469 176.382 151.862 176.382 133.908C176.382 115.954 161.791 101.348 143.857 101.348C137.094 101.348 130.609 103.406 125.105 107.301C124.314 107.861 123.218 107.673 122.658 106.88C122.098 106.087 122.286 104.99 123.078 104.43C129.178 100.114 136.363 97.8323 143.856 97.8323C163.728 97.8323 179.894 114.016 179.894 133.908C179.894 153.801 163.728 169.984 143.856 169.984C123.985 169.984 107.819 153.801 107.819 133.908ZM60.1271 72.247C78.0615 72.247 92.6526 86.8533 92.6526 104.807C92.6526 122.761 78.0615 137.368 60.1271 137.368C42.1927 137.368 27.6016 122.761 27.6016 104.807C27.6016 86.8537 42.1927 72.247 60.1271 72.247Z" fill="#3A85F4"/>
<ellipse cx="133.357" cy="45.5" rx="26.4717" ry="26.5" fill="white"/>
<ellipse cx="59.4365" cy="104.5" rx="26.4717" ry="26.5" fill="white"/>
<ellipse cx="143.347" cy="133.5" rx="26.4717" ry="26.5" fill="white"/>
<ellipse cx="143.915" cy="133.209" rx="9.19945" ry="9.2093" fill="#3A85F4"/>
<path fill-rule="evenodd" clip-rule="evenodd" d="M128.945 155.739C129.342 151.438 131.266 146.178 136.906 144.093C139.005 145.661 144.72 147.855 150.787 144.093C153.404 144.961 157.954 148.248 158.824 155.001C154.476 158.143 149.136 159.996 143.365 160H143.33C138.025 159.997 133.086 158.431 128.945 155.739Z" fill="#3A85F4"/>
<ellipse cx="59.9231" cy="104.209" rx="9.19945" ry="9.2093" fill="#3A85F4"/>
<path fill-rule="evenodd" clip-rule="evenodd" d="M44.9531 126.739C45.3493 122.438 47.2736 117.178 52.914 115.093C55.0129 116.661 60.7275 118.855 66.7949 115.093C69.4122 115.961 73.9618 119.248 74.8317 126.001C70.4835 129.143 65.1441 130.996 59.3726 131H59.3374C54.033 130.997 49.0935 129.431 44.9531 126.739Z" fill="#3A85F4"/>
<ellipse cx="133.843" cy="45.2093" rx="9.19945" ry="9.2093" fill="#3A85F4"/>
<path fill-rule="evenodd" clip-rule="evenodd" d="M118.873 67.7384C119.269 63.4378 121.193 58.1776 126.833 56.093C128.932 57.6607 134.647 59.8554 140.714 56.093C143.332 56.9615 147.881 60.2482 148.751 67.0017C144.403 70.1436 139.064 71.9962 133.292 72H133.257C127.953 71.9965 123.013 70.4311 118.873 67.7384Z" fill="#3A85F4"/>
<path d="M93.5 118L109.5 123" stroke="#5A5A5A" stroke-width="3"/>
<defs>
<linearGradient id="paint0_linear_73_1518" x1="13.9844" y1="89.9999" x2="190" y2="89.9999" gradientUnits="userSpaceOnUse">
<stop stop-color="#6EBDFE" stop-opacity="0"/>
<stop offset="1" stop-color="#6EBDFE"/>
</linearGradient>
</defs>
</svg>
