<svg width="167" height="152" viewBox="0 0 167 152" fill="none" xmlns="http://www.w3.org/2000/svg">
<path d="M162.97 37.4013C155.71 19.0533 133.346 8.05026 114.405 15.3317C92.7847 23.6429 99.9533 57.7999 80.315 64.7069C69.7067 68.4379 54.0245 54.5008 43.3067 52.3634C23.5568 48.4253 5.67758 62.2666 1.27499 81.4341C-3.21657 100.989 3.9874 127.107 25.6185 132.415C51.3852 138.737 64.8069 115.731 86.4224 109.125C108.604 102.346 133.268 118.356 151.631 98.8761C165.198 84.4846 170.158 55.5696 162.97 37.4013Z" fill="url(#paint0_linear_73_1621)"/>
<path opacity="0.11" d="M108.702 8.38574H41.8096C38.0435 8.38574 34.9905 11.4182 34.9905 15.1588V37.3172C29.6543 38.8314 25.7476 43.6977 25.7476 49.4713C25.7476 55.2449 29.6546 60.1115 34.9905 61.6255V144.815C34.9905 148.556 38.0435 151.588 41.8096 151.588H108.702C112.469 151.588 115.522 148.556 115.522 144.815V15.1588C115.522 11.4182 112.469 8.38574 108.702 8.38574Z" fill="#3A85F4"/>
<path d="M123.314 8.38564V138.042C123.314 141.783 120.261 144.815 116.495 144.815H49.6024C45.8362 144.815 42.7832 141.783 42.7832 138.042V8.38564C42.7832 4.64496 45.8362 1.61255 49.6024 1.61255H116.495C120.261 1.61255 123.314 4.64496 123.314 8.38564Z" fill="white"/>
<path d="M123.314 19.0294V8.38564C123.314 4.64496 120.261 1.61255 116.495 1.61255H49.6024C45.8362 1.61255 42.7832 4.64496 42.7832 8.38564V19.0291L123.314 19.0294Z" fill="#D4EBFF"/>
<path d="M54.176 12.5094C55.1785 12.5094 55.9912 11.7022 55.9912 10.7065C55.9912 9.71076 55.1785 8.90356 54.176 8.90356C53.1735 8.90356 52.3608 9.71076 52.3608 10.7065C52.3608 11.7022 53.1735 12.5094 54.176 12.5094Z" fill="white"/>
<path d="M60.6423 12.5094C61.6449 12.5094 62.4575 11.7022 62.4575 10.7065C62.4575 9.71076 61.6449 8.90356 60.6423 8.90356C59.6398 8.90356 58.8271 9.71076 58.8271 10.7065C58.8271 11.7022 59.6398 12.5094 60.6423 12.5094Z" fill="white"/>
<path d="M67.1038 8.90356C68.1062 8.90356 68.919 9.71085 68.919 10.7065C68.919 11.7021 68.1062 12.5094 67.1038 12.5094C66.1014 12.5094 65.2886 11.7021 65.2886 10.7065C65.2886 9.71085 66.1014 8.90356 67.1038 8.90356Z" fill="white"/>
<path d="M42.2372 57.1838C49.275 57.1838 54.9803 51.5171 54.9803 44.5268C54.9803 37.5366 49.275 31.8699 42.2372 31.8699C35.1994 31.8699 29.4941 37.5366 29.4941 44.5268C29.4941 51.5171 35.1994 57.1838 42.2372 57.1838Z" fill="#D4EBFF"/>
<path d="M81.3414 82.0087V111.959C81.3414 113.315 80.5984 114.414 79.6814 114.414H71.3812C70.4646 114.414 69.7212 113.315 69.7212 111.959V82.0087C69.7212 80.653 70.4646 79.5537 71.3812 79.5537H79.6814C80.5984 79.5537 81.3414 80.653 81.3414 82.0087Z" fill="#D4EBFF"/>
<path d="M64.358 86.994V112.337C64.358 113.484 63.6146 114.414 62.698 114.414H54.3978C53.4812 114.414 52.7378 113.484 52.7378 112.337V86.994C52.7378 85.847 53.4812 84.9167 54.3978 84.9167H62.698C63.6146 84.9167 64.358 85.847 64.358 86.994Z" fill="#D4EBFF"/>
<path d="M97.4307 72.226V112.803C97.4307 114.186 96.6874 115.308 95.7707 115.308H87.4706C86.5539 115.308 85.8105 114.186 85.8105 112.803V72.226C85.8105 70.8428 86.5539 69.7212 87.4706 69.7212H95.7707C96.6874 69.7212 97.4307 70.8428 97.4307 72.226Z" fill="#D4EBFF"/>
<path d="M113.52 63.769V112.321C113.52 113.477 112.777 114.414 111.86 114.414H103.56C102.643 114.414 101.9 113.477 101.9 112.321V63.769C101.9 62.6134 102.643 61.6763 103.56 61.6763H111.86C112.777 61.6763 113.52 62.6134 113.52 63.769Z" fill="#D4EBFF"/>
<path d="M71.1441 30.3806H95.0105C95.7908 30.3806 96.5081 29.8616 96.6617 29.1017C96.8712 28.0651 96.0782 27.1553 95.0719 27.1553H71.083C70.0764 27.1553 69.2841 28.0651 69.4932 29.1017C69.6464 29.8616 70.3638 30.3806 71.1441 30.3806Z" fill="#5A5A5A"/>
<path d="M84.5959 41.8342H100.136C100.644 41.8342 101.111 41.3618 101.211 40.6701C101.348 39.7266 100.831 38.8984 100.176 38.8984H84.5562C83.9007 38.8984 83.3848 39.7266 83.521 40.6701C83.6208 41.3618 84.0878 41.8342 84.5959 41.8342Z" fill="#5A5A5A"/>
<path d="M62.9302 35.9626H85.5929C86.3339 35.9626 87.015 35.4902 87.1609 34.7986C87.3597 33.855 86.6068 33.0269 85.6512 33.0269H62.8722C61.9164 33.0269 61.164 33.855 61.3626 34.7986C61.5081 35.4902 62.1893 35.9626 62.9302 35.9626Z" fill="#5A5A5A"/>
<path d="M91.063 35.9626H104.013C104.437 35.9626 104.826 35.4902 104.909 34.7986C105.023 33.855 104.592 33.0269 104.046 33.0269H91.0299C90.4837 33.0269 90.0537 33.855 90.1672 34.7986C90.2504 35.4902 90.6396 35.9626 91.063 35.9626Z" fill="#5A5A5A"/>
<path d="M66.6773 41.8342H79.6274C80.0508 41.8342 80.44 41.3618 80.5233 40.6701C80.637 39.7266 80.2067 38.8984 79.6607 38.8984H66.6441C66.0979 38.8984 65.668 39.7266 65.7815 40.6701C65.8646 41.3618 66.2539 41.8342 66.6773 41.8342Z" fill="#5A5A5A"/>
<path d="M116.811 146.428H98.8239C98.7359 146.428 98.6483 146.395 98.5846 146.335C97.099 144.929 98.08 143.203 99.4662 143.203H115.622C118.973 143.203 121.689 140.505 121.689 137.177V54.3381C121.689 54.2507 121.722 54.1636 121.782 54.1004C123.198 52.6248 124.936 53.5992 124.936 54.976V138.357C124.937 142.815 121.299 146.428 116.811 146.428Z" fill="#3A85F4"/>
<path d="M83.1297 135.639C82.6984 135.639 82.2851 135.469 81.9805 135.166L80.0873 133.282C79.4538 132.652 79.4548 131.631 80.0893 131.002C80.7238 130.373 81.7519 130.373 82.3854 131.004L83.1297 131.744L83.8739 131.004C84.5075 130.373 85.5355 130.372 86.17 131.002C86.8045 131.631 86.8055 132.652 86.172 133.282L84.2789 135.166C83.9746 135.469 83.5609 135.639 83.1297 135.639Z" fill="#3A85F4"/>
<path d="M116.493 0H49.6005C44.9378 0 41.1577 3.75455 41.1577 8.38573V30.1541C33.6726 30.637 27.7305 36.8353 27.7305 44.3899C27.7305 51.9445 33.6726 58.1431 41.1577 58.6256V138.479C41.1577 142.869 44.7407 146.428 49.1605 146.428H90.8662C90.9542 146.428 91.0419 146.395 91.1056 146.335C92.5912 144.929 91.6102 143.203 90.2236 143.203H49.6005C46.731 143.203 44.405 140.892 44.405 138.042V58.5205C51.2293 57.421 56.457 51.5294 56.457 44.445C56.457 37.3607 51.2293 31.4694 44.405 30.3699V20.6418H121.689V45.8319C121.689 46.6076 122.212 47.3207 122.978 47.4723C124.021 47.6787 124.936 46.894 124.936 45.898V8.358C124.936 3.74939 121.149 0 116.493 0ZM53.3569 44.5273C53.3569 50.6173 48.3688 55.5716 42.2374 55.5716C36.106 55.5716 31.118 50.6173 31.118 44.5273C31.118 38.4373 36.106 33.4829 42.2374 33.4829C48.3688 33.4829 53.3569 38.4373 53.3569 44.5273ZM121.689 17.4165H44.405V8.38573C44.405 5.53555 46.731 3.22528 49.6005 3.22528H116.493C119.363 3.22528 121.689 5.53555 121.689 8.38573L121.689 17.4165Z" fill="#3A85F4"/>
<path d="M47.984 74H73.3333C74.8543 74 85.1866 65.4551 86.2612 64.5188L91.3038 60.1317C91.6625 59.8199 92.139 59.6482 92.6462 59.6482H107.234C108.755 59.6482 110.215 59.1221 111.291 58.1861L117.464 52.8147C117.822 52.5029 118.308 52.3276 118.816 52.3276L127.015 52.3276C127.934 52.3276 128.779 51.7922 128.96 51.0082C129.206 49.9387 128.272 49 127.087 49L118.783 49C117.261 49 115.802 49.5258 114.727 50.4618L108.553 55.8332C108.195 56.145 107.708 56.3203 107.201 56.3203H92.6634C91.142 56.3203 89.6833 56.8461 88.6075 57.7821L83.5814 62.1552C83.2231 62.4673 73.8347 70.6724 73.3276 70.6724H47.9118C46.7266 70.6724 45.7926 71.6111 46.0393 72.6806C46.2202 73.4646 47.065 74 47.984 74Z" fill="#3A85F4"/>
<path d="M137.296 24.5122H136.302V23.5249C136.302 22.7499 135.78 22.0374 135.015 21.8849C133.971 21.6768 133.055 22.4645 133.055 23.464V24.5122H132.061C131.281 24.5122 130.563 25.0311 130.41 25.791C130.2 26.8276 130.993 27.7375 132 27.7375H133.055V28.7247C133.055 29.4998 133.577 30.2122 134.342 30.3648C135.386 30.5728 136.302 29.7852 136.302 28.7857V27.7375H137.358C138.364 27.7375 139.157 26.8276 138.947 25.791C138.794 25.0311 138.076 24.5122 137.296 24.5122Z" fill="#D4EBFF"/>
<path d="M146.713 113.207H145.719V112.22C145.719 111.445 145.197 110.732 144.432 110.58C143.388 110.372 142.472 111.16 142.472 112.159V113.207H141.478C140.698 113.207 139.98 113.726 139.827 114.486C139.617 115.523 140.41 116.433 141.417 116.433H142.472V117.42C142.472 118.195 142.994 118.907 143.759 119.06C144.803 119.268 145.719 118.48 145.719 117.481V116.433H146.775C147.781 116.433 148.574 115.523 148.364 114.486C148.211 113.726 147.493 113.207 146.713 113.207Z" fill="#D4EBFF"/>
<path d="M139.178 99.8803C138.705 99.8803 138.229 99.809 137.764 99.6655C136.555 99.292 135.564 98.4731 134.975 97.3594C134.386 96.2458 134.268 94.9708 134.644 93.7697C135.02 92.5686 135.845 91.5846 136.966 90.9995C138.087 90.4144 139.371 90.2977 140.58 90.6712C141.79 91.0447 142.781 91.8636 143.37 92.9772C143.959 94.0909 144.076 95.3659 143.7 96.567C143.324 97.7681 142.499 98.7521 141.378 99.3372C140.688 99.6974 139.936 99.8803 139.178 99.8803ZM139.173 93.6836C138.536 93.6836 137.944 94.0919 137.745 94.7273C137.627 95.1059 137.664 95.5078 137.849 95.8587C138.035 96.2096 138.347 96.468 138.729 96.5857C139.514 96.8282 140.355 96.3909 140.6 95.6091C140.718 95.2304 140.681 94.8286 140.495 94.4777C140.31 94.1267 139.998 93.8684 139.616 93.7507C139.469 93.7052 139.32 93.6836 139.173 93.6836Z" fill="#D4EBFF"/>
<path d="M20.2438 79.0601C19.7703 79.0601 19.2949 78.9888 18.8299 78.8453C17.6207 78.4718 16.6299 77.6529 16.0409 76.5392C15.4515 75.4255 15.3343 74.1509 15.7103 72.9495C16.0864 71.748 16.9108 70.764 18.0321 70.1789C19.153 69.5939 20.4367 69.4771 21.6462 69.8506C24.1427 70.6218 25.5426 73.2668 24.7662 75.7464C24.3902 76.9475 23.5657 77.9316 22.4444 78.5169C21.7537 78.8775 21.002 79.0601 20.2438 79.0601ZM20.236 72.8627C19.997 72.8627 19.7599 72.9204 19.5424 73.034C19.1891 73.2185 18.929 73.5287 18.8104 73.9074C18.5659 74.6892 19.0069 75.5229 19.7937 75.7658C20.1753 75.8832 20.5795 75.8467 20.9328 75.6623C21.2861 75.4778 21.5462 75.1678 21.6648 74.7892C21.9093 74.0074 21.4683 73.1736 20.6812 72.9304C20.535 72.8853 20.3854 72.8627 20.236 72.8627Z" fill="#81C2FF"/>
<path d="M31.8521 88.0389C31.3868 88.0389 30.914 87.9702 30.4471 87.826C27.9503 87.0548 26.5507 84.4101 27.3271 81.9302C27.7032 80.7287 28.5276 79.745 29.6489 79.1597C30.7702 78.5743 32.0538 78.4575 33.2631 78.8313C34.4727 79.2048 35.4631 80.0237 36.0524 81.1374C36.6418 82.2511 36.759 83.5257 36.383 84.7271C35.7521 86.7433 33.8739 88.0389 31.8521 88.0389ZM31.8534 81.8434C31.6144 81.8434 31.3774 81.9011 31.1598 82.0147C30.8065 82.1992 30.5464 82.5094 30.4279 82.8881C30.1834 83.6696 30.6244 84.5036 31.4112 84.7465C32.197 84.9884 33.0371 84.5514 33.2822 83.7695C33.4007 83.3909 33.3637 82.9894 33.178 82.6381C32.9922 82.2872 32.6799 82.0289 32.2986 81.9111C32.1525 81.866 32.0025 81.8434 31.8534 81.8434Z" fill="#81C2FF"/>
<path d="M41.0614 37.3849C41.5122 36.0068 43.4618 36.0068 43.9127 37.3849L44.7203 39.8538C44.922 40.4704 45.4972 40.8874 46.146 40.8874H48.7378C50.1934 40.8874 50.7959 42.752 49.6156 43.6038L47.5363 45.1043C47.007 45.4863 46.7855 46.1667 46.9884 46.787L47.7868 49.2275C48.2382 50.6077 46.6609 51.76 45.4833 50.9102L43.3648 49.3814C42.8407 49.0033 42.1333 49.0033 41.6093 49.3814L39.4907 50.9103C38.3132 51.76 36.7358 50.6077 37.1873 49.2275L37.9857 46.787C38.1886 46.1667 37.9671 45.4863 37.4378 45.1043L35.3584 43.6038C34.1781 42.752 34.7807 40.8874 36.2362 40.8874H38.8281C39.4768 40.8874 40.052 40.4704 40.2537 39.8538L41.0614 37.3849Z" fill="white"/>
<defs>
<linearGradient id="paint0_linear_73_1621" x1="75.5569" y1="38.4485" x2="92.8655" y2="121.708" gradientUnits="userSpaceOnUse">
<stop stop-color="#77C2FE" stop-opacity="0"/>
<stop offset="1" stop-color="#77C2FE"/>
</linearGradient>
</defs>
</svg>
