<svg width="22" height="20" viewBox="0 0 22 20" fill="none" xmlns="http://www.w3.org/2000/svg">
<path d="M2.67 0.210938C3.352 0.210938 3.886 0.425938 4.274 0.853938C4.662 1.28194 4.87 1.82194 4.898 2.46894C4.898 3.10794 4.68 3.64694 4.241 4.08494C3.802 4.52194 3.202 4.74094 2.443 4.74094H2.416C1.675 4.74094 1.088 4.52194 0.651 4.08494C0.219 3.64694 0 3.10794 0 2.46894C0 1.81194 0.238 1.27194 0.718 0.846938C1.198 0.422938 1.85 0.210938 2.67 0.210938ZM0.287 6.53494H4.97V19.6909H0.287V6.53494ZM21.903 12.1479V19.6909H17.221V12.6549C17.221 11.7599 17.037 11.0429 16.671 10.4969C16.307 9.95594 15.698 9.68494 14.838 9.68494C14.183 9.68494 13.657 9.85094 13.265 10.1849C12.872 10.5169 12.587 10.8839 12.415 11.2869C12.359 11.4329 12.324 11.5939 12.305 11.7729C12.287 11.9489 12.279 12.1399 12.279 12.3409V19.6919H7.568C7.588 17.4659 7.599 15.4239 7.599 13.5719V11.2329V9.10794C7.599 8.46094 7.592 7.90894 7.581 7.45094C7.575 6.99694 7.568 6.68994 7.568 6.53494H12.279V8.39794L12.253 8.45194H12.279V8.39794C12.425 8.16894 12.612 7.92994 12.84 7.67894C13.071 7.42894 13.347 7.19494 13.683 6.97894C14.016 6.76494 14.417 6.58894 14.887 6.44594C15.36 6.30494 15.898 6.23494 16.511 6.23494C17.273 6.23494 17.985 6.35094 18.649 6.58394C19.311 6.81694 19.88 7.18194 20.364 7.67994C20.845 8.17494 21.222 8.79094 21.496 9.52694C21.769 10.2609 21.903 11.1349 21.903 12.1479Z" fill="#007BC4"/>
</svg>
