<svg width="27" height="22" viewBox="0 0 27 22" fill="none" xmlns="http://www.w3.org/2000/svg">
<path d="M23.6621 4.02707C24.775 3.36181 25.6076 2.31427 26.0046 1.08004C24.959 1.70048 23.8149 2.13754 22.6219 2.37232C20.9678 0.622626 18.3472 0.196831 16.2243 1.33285C14.1014 2.46888 13.0018 4.88548 13.5399 7.23232C9.2567 7.01728 5.26611 4.994 2.56119 1.66597C1.14954 4.10084 1.87092 7.21342 4.20974 8.77907C3.364 8.75188 2.53701 8.5229 1.79774 8.11121C1.79774 8.13356 1.79774 8.1559 1.79774 8.17825C1.79823 10.7146 3.58579 12.8993 6.07181 13.402C5.28733 13.6154 4.46448 13.6468 3.66601 13.4938C4.36516 15.6629 6.36421 17.1488 8.6427 17.1931C6.7556 18.6743 4.42509 19.4775 2.02615 19.4736C1.60094 19.4742 1.17607 19.4497 0.753738 19.4003C3.18981 20.9657 6.02509 21.7966 8.92077 21.7937C12.9494 21.8214 16.8209 20.2332 19.6695 17.3843C22.5181 14.5355 24.106 10.6638 24.078 6.63521C24.078 6.40432 24.0726 6.17466 24.0619 5.94625C25.1052 5.19224 26.0056 4.25816 26.7209 3.1879C25.7489 3.61874 24.7179 3.9016 23.6621 4.02707Z" fill="#2C80FF"/>
</svg>
